# xmcd
#
# Track frame offsets: 
#        150
#        15419
#        34443
#        48047
#        65842
#        79809
#        96334
#        112904
#        130351
#        154221
#        192582
#        217697
#        237334
#        258005
#        273162
#        303033
#        329720
#
# Disc length: 4803 seconds
#
# Revision: 1
# Processed by: cddbd v1.5.2PL0 Copyright (c) Steve Scherf et al.
# Submitted via: ExactAudioCopy v0.95a5
#
DISCID=e712c111
DTITLE=Various Artist - Still Got the Blues   CD-1  
DYEAR=2003
DGENRE=Blues
TTITLE0=Shame, Shame, Shame - BUDDY GUY
TTITLE1=Wake Up Call - JOHN MAYALL
TTITLE2=Blue Mood - JOHNNY WINTER
TTITLE3=Word in Motion - POPS STAPLES
TTITLE4=Fear No Evil  - ROBERT WARD
TTITLE5=Corn Up That Bottle - BLUE LOU&The HEADHUNTERS
TTITLE6=Home at Last - HI TIDE HARRIS
TTITLE7=Your Mind is on Vacation - ROY ROGERS
TTITLE8=I Guess That Says It All - BRENDAN CROKER
TTITLE9=The Red, the White and the Blues - JOHNNY GRAHAM
TTITLE10=Since I Fell for You - JOHNNY DIESEL
TTITLE11=Frustrated  Baby - LARRY McCRAY
TTITLE12=Feels Like Rain - BUDDY GUY
TTITLE13=Too Many Cooks - TERRY EVANS
TTITLE14=I Can Tell - WALTER TROUT
TTITLE15=Tell Me I'm Your Man - ROBBEN FORD
TTITLE16=A Fool for You - BACKBONE SLIP
EXTD=
EXTT0=
EXTT1=
EXTT2=
EXTT3=
EXTT4=
EXTT5=
EXTT6=
EXTT7=
EXTT8=
EXTT9=
EXTT10=
EXTT11=
EXTT12=
EXTT13=
EXTT14=
EXTT15=
EXTT16=
PLAYORDER=
